<svg xmlns="http://www.w3.org/2000/svg" viewBox="0 0 16 16" shape-rendering="crispEdges"><rect x="3" y="0" width="8" height="1" fill="#000"/><rect x="2" y="1" width="1" height="1" fill="#000"/><rect x="11" y="1" width="1" height="1" fill="#000"/><rect x="3" y="1" width="8" height="1" fill="#9945ff"/><rect x="1" y="2" width="1" height="1" fill="#000"/><rect x="12" y="2" width="1" height="1" fill="#000"/><rect x="2" y="2" width="2" height="1" fill="#9945ff"/><rect x="4" y="2" width="2" height="1" fill="#fff8e7"/><rect x="6" y="2" width="2" height="1" fill="#9945ff"/><rect x="8" y="2" width="2" height="1" fill="#fff8e7"/><rect x="10" y="2" width="2" height="1" fill="#9945ff"/><rect x="1" y="3" width="1" height="1" fill="#000"/><rect x="12" y="3" width="1" height="1" fill="#000"/><rect x="2" y="3" width="1" height="1" fill="#9945ff"/><rect x="3" y="3" width="1" height="1" fill="#fff8e7"/><rect x="4" y="3" width="2" height="1" fill="#000"/><rect x="6" y="3" width="2" height="1" fill="#fff8e7"/><rect x="8" y="3" width="2" height="1" fill="#000"/><rect x="10" y="3" width="1" height="1" fill="#fff8e7"/><rect x="11" y="3" width="1" height="1" fill="#9945ff"/><rect x="1" y="4" width="1" height="1" fill="#000"/><rect x="12" y="4" width="1" height="1" fill="#000"/><rect x="2" y="4" width="2" height="1" fill="#9945ff"/><rect x="4" y="4" width="2" height="1" fill="#fff8e7"/><rect x="6" y="4" width="2" height="1" fill="#9945ff"/><rect x="8" y="4" width="2" height="1" fill="#fff8e7"/><rect x="10" y="4" width="2" height="1" fill="#9945ff"/><rect x="1" y="5" width="1" height="1" fill="#000"/><rect x="12" y="5" width="1" height="1" fill="#000"/><rect x="2" y="5" width="10" height="1" fill="#9945ff"/><rect x="1" y="6" width="1" height="1" fill="#000"/><rect x="12" y="6" width="1" height="1" fill="#000"/><rect x="2" y="6" width="2" height="1" fill="#9945ff"/><rect x="4" y="6" width="6" height="1" fill="#14f195"/><rect x="10" y="6" width="2" height="1" fill="#9945ff"/><rect x="1" y="7" width="1" height="1" fill="#000"/><rect x="12" y="7" width="1" height="1" fill="#000"/><rect x="2" y="7" width="2" height="1" fill="#9945ff"/><rect x="4" y="7" width="1" height="1" fill="#14f195"/><rect x="5" y="7" width="1" height="1" fill="#ffe57a"/><rect x="6" y="7" width="2" height="1" fill="#14f195"/><rect x="8" y="7" width="1" height="1" fill="#ffe57a"/><rect x="9" y="7" width="1" height="1" fill="#14f195"/><rect x="10" y="7" width="2" height="1" fill="#9945ff"/><rect x="1" y="8" width="1" height="1" fill="#000"/><rect x="12" y="8" width="1" height="1" fill="#000"/><rect x="2" y="8" width="2" height="1" fill="#9945ff"/><rect x="4" y="8" width="6" height="1" fill="#14f195"/><rect x="10" y="8" width="2" height="1" fill="#9945ff"/><rect x="2" y="9" width="1" height="1" fill="#000"/><rect x="11" y="9" width="1" height="1" fill="#000"/><rect x="3" y="9" width="2" height="1" fill="#9945ff"/><rect x="5" y="9" width="4" height="1" fill="#14f195"/><rect x="9" y="9" width="2" height="1" fill="#9945ff"/><rect x="3" y="10" width="1" height="1" fill="#000"/><rect x="10" y="10" width="1" height="1" fill="#000"/><rect x="4" y="10" width="6" height="1" fill="#9945ff"/><rect x="4" y="11" width="6" height="1" fill="#000"/><rect x="3" y="12" width="1" height="1" fill="#000"/><rect x="9" y="12" width="1" height="1" fill="#000"/><rect x="4" y="12" width="1" height="1" fill="#9945ff"/><rect x="10" y="12" width="1" height="1" fill="#000"/><rect x="2" y="13" width="1" height="1" fill="#000"/><rect x="11" y="13" width="1" height="1" fill="#000"/><rect x="3" y="13" width="2" height="1" fill="#9945ff"/><rect x="9" y="13" width="2" height="1" fill="#9945ff"/><rect x="2" y="14" width="2" height="1" fill="#000"/><rect x="10" y="14" width="2" height="1" fill="#000"/></svg>
